HIERARCHY
ROOT Hips
{
  OFFSET -19.6868 92.5399 179.19
  CHANNELS 6 Xposition Yposition Zposition Zrotation Xrotation Yrotation
  JOINT RightUpLeg
  {
    OFFSET -8.9458 -8.66707 0.101652
    CHANNELS 3 Zrotation Xrotation Yrotation
    JOINT RightLeg
    {
      OFFSET 0 -44.4227 1.3727
      CHANNELS 3 Zrotation Xrotation Yrotation
      JOINT RightFoot
      {
        OFFSET 0.253549 -42.0924 -1.46059
        CHANNELS 3 Zrotation Xrotation Yrotation
        JOINT RightToes
        {
          OFFSET 0.04 -4.41509 8.4991
          CHANNELS 3 Zrotation Xrotation Yrotation
          End Site
          {
            OFFSET -0.08 -0.137448 9.77979
          }
        }
      }
    }
  }
  JOINT Spine
  {
    OFFSET 0 11.8905 0
    CHANNELS 3 Zrotation Xrotation Yrotation
    JOINT Spine1
    {
      OFFSET 0 25.6574 0.127663
      CHANNELS 3 Zrotation Xrotation Yrotation
      JOINT HEad
      {
        OFFSET 0 8.73416 0.011341
        CHANNELS 3 Zrotation Xrotation Yrotation
        End Site
        {
          OFFSET -0.29 12.7742 2.51395
        }
      }
      JOINT LeftShoulder1
      {
        OFFSET 8.99 -0.362252 -0.22
        CHANNELS 3 Zrotation Xrotation Yrotation
        JOINT LeftArm
        {
          OFFSET 10.2827 -0.00338 0.322123
          CHANNELS 3 Zrotation Xrotation Yrotation
          JOINT LeftForeArm
          {
            OFFSET 32.7669 0.099144 -1.42434
            CHANNELS 3 Zrotation Xrotation Yrotation
            JOINT LeftHand
            {
              OFFSET 27.5643 0.085362 1.02216
              CHANNELS 3 Zrotation Xrotation Yrotation
              End Site
              {
                OFFSET 16.7443 -0.6 1.50291
              }
            }
          }
        }
      }
      JOINT RightShoulder
      {
        OFFSET -8.99 -0.362252 -0.22
        CHANNELS 3 Zrotation Xrotation Yrotation
        JOINT RightArm
        {
          OFFSET -10.2827 -0.00338 0.322123
          CHANNELS 3 Zrotation Xrotation Yrotation
          JOINT RightForeArm
          {
            OFFSET -32.8971 0.099144 -1.42434
            CHANNELS 3 Zrotation Xrotation Yrotation
            JOINT RightHand
            {
              OFFSET -27.4921 0.085362 1.02216
              CHANNELS 3 Zrotation Xrotation Yrotation
              End Site
              {
                OFFSET -16.6312 -0.6 1.50291
              }
            }
          }
        }
      }
    }
  }
  JOINT LeftUpLeg
  {
    OFFSET 8.9458 -8.66707 0.101652
    CHANNELS 3 Zrotation Xrotation Yrotation
    JOINT LeftLeg
    {
      OFFSET 0 -44.4227 1.3727
      CHANNELS 3 Zrotation Xrotation Yrotation
      JOINT LeftFoot
      {
        OFFSET -0.253549 -42.0924 -1.46059
        CHANNELS 3 Zrotation Xrotation Yrotation
        JOINT LeftToes
        {
          OFFSET -0.04 -4.41509 8.4991
          CHANNELS 3 Zrotation Xrotation Yrotation
          End Site
          {
            OFFSET 0.08 -0.047448 9.77979
          }
        }
      }
    }
  }
}
MOTION
Frames:	22
Frame Time:	0.0166667
-37.33955	56.9833	38.248	40.9818	27.6432	146.55	-68.2346	-56.2165	-77.1859	95.8355	61.5955	-111.277	-1.10831	-6.29492	7.68999	4.62E-02	5.34E-04	6.63E-01	-1.55751	3.42948	0.55167	-3.15658	6.84526	1.1998	-26.1546	57.8877	25.9883	6.36E-15	-4.77E-15	0.00E+00	-47.4079	7.0924	-59.3739	-21.3361	-22.6685	-144.857	-25.4663	1.8621	11.1671	6.36E-15	-4.77E-15	0.00E+00	-2.27606	16.4225	56.7626	6.19414	-33.6759	133.383	7.71277	-0.936074	8.84015	-7.49E+00	-4.63E+01	-19.8305	119.349	82.2074	-133.352	-7.04115	-1.56711	-5.00625	1.43E-14	3.18E-14	6.36E-15
-37.31885	56.9707	38.256	40.9495	27.6076	146.629	-68.3488	-56.2556	-77.3139	95.8671	61.614	-111.318	-1.11265	-6.28066	7.69637	4.62E-02	5.34E-04	6.63E-01	-1.5624	3.4343	0.565734	-3.1673	6.85445	1.22844	-26.3054	57.7167	26.1607	-1.59E-15	-4.77E-15	-6.36E-15	-47.2979	7.00323	-59.3792	-21.2925	-22.8146	-144.995	-25.5618	1.8556	11.2488	-1.59E-15	-4.77E-15	-6.36E-15	-2.2983	16.4334	56.8914	6.0831	-33.7028	133.328	7.6267	-0.986434	8.94218	-7.51E+00	-4.63E+01	-19.8443	119.419	82.179	-133.475	-7.00496	-1.57738	-5.0263	1.59E-14	3.14E-14	1.59E-14
-37.29825	56.9608	38.261	40.9297	27.5689	146.718	-68.4574	-56.2802	-77.4292	95.919	61.6158	-111.389	-1.13019	-6.27478	7.681	4.62E-02	5.34E-04	6.63E-01	-1.5628	3.4447	0.573664	-3.16535	6.87506	1.24453	-26.475	57.56	26.3305	3.18E-15	-4.77E-15	0.00E+00	-47.2312	6.8722	-59.3515	-21.2983	-22.8787	-145.113	-25.6578	1.86397	11.3298	3.18E-15	-4.77E-15	0.00E+00	-2.3477	16.4113	56.989	6.02813	-33.6867	133.282	7.55212	-1.07203	9.05796	-7.52E+00	-46.4182	-19.874	119.525	82.1583	-133.609	-6.96994	-1.58099	-5.03403	1.43E-14	3.18E-14	3.18E-15
-37.28195	56.9522	38.262	40.9046	27.5155	146.798	-68.566	-56.3233	-77.553	95.9673	61.616	-111.451	-1.13407	-6.24891	7.65265	4.62E-02	5.34E-04	6.63E-01	-1.56158	3.44922	0.580338	-3.16225	6.88391	1.25798	-26.6636	57.4263	26.5284	-6.36E-15	-3.18E-15	-6.36E-15	-47.1979	6.70987	-59.2903	-21.3517	-22.8449	-145.206	-25.7412	1.89281	11.4233	-6.36E-15	-3.18E-15	-6.36E-15	-2.3582	16.3907	57.0493	5.99872	-33.6097	133.252	7.46472	-1.1393	9.17577	-7.54E+00	-4.65E+01	-19.9115	119.642	82.1455	-133.729	-6.93484	-1.56849	-5.08614	1.67E-14	3.22E-14	1.27E-14
-37.26855	56.9429	38.261	40.8853	27.4601	146.865	-68.647	-56.3691	-77.6535	96.0102	61.6155	-111.494	-1.13162	-6.22069	7.615	4.62E-02	5.34E-04	6.63E-01	-1.56243	3.44708	0.588617	-3.16892	6.87937	1.2747	-26.8287	57.3348	26.7389	-4.77E-15	4.77E-15	3.18E-15	-47.1629	6.54729	-59.2045	-21.4122	-22.7565	-145.271	-25.7949	1.91928	11.5161	-4.77E-15	4.77E-15	3.18E-15	-2.33448	16.4021	57.0835	5.98498	-33.5165	133.234	7.37034	-1.1752	9.27665	-7.54E+00	-4.66E+01	-1.99E+01	119.721	82.1355	-133.816	-6.90441	-1.56175	-5.11747	1.67E-14	3.26E-14	1.27E-14
-37.26245	56.9359	38.255	40.8809	27.4142	146.915	-68.6959	-56.4079	-77.7093	96.0516	61.6029	-111.527	-1.13412	-6.19474	7.57885	4.62E-02	5.34E-04	6.63E-01	-1.56877	3.44273	0.60112	-3.18233	6.87024	1.30002	-26.9567	57.2846	26.938	-4.77E-15	3.18E-15	3.18E-15	-47.1272	6.40299	-59.0955	-21.4561	-22.653	-145.316	-25.806	1.92964	11.5909	-4.77E-15	3.18E-15	3.18E-15	-2.32475	16.463	57.0938	5.97722	-33.462	133.239	7.28224	-1.18866	9.36093	-7.54E+00	-4.67E+01	-2.00E+01	119.739	82.1201	-133.86	-6.88284	-1.56886	-5.13616	1.51E-14	3.26E-14	3.18E-15
-37.25655	56.9343	38.248	40.8803	27.3638	146.961	-68.7386	-56.4366	-77.7582	96.0922	61.5853	-111.559	-1.12636	-6.16032	7.57344	4.62E-02	5.34E-04	6.63E-01	-1.57468	3.43868	0.613405	-3.19487	6.86273	1.3249	-27.0345	57.2508	27.0875	-4.41E-31	7.95E-15	3.18E-15	-47.0873	6.27005	-58.9774	-21.5028	-22.5447	-145.363	-25.7851	1.93441	11.6429	-4.41E-31	7.95E-15	3.18E-15	-2.33523	16.5455	57.1074	5.92192	-33.4632	133.226	7.20512	-1.21386	9.43041	-7.54E+00	-4.67E+01	-2.00E+01	119.662	82.0924	-133.818	-6.87095	-1.58701	-5.10601	1.59E-14	3.26E-14	3.18E-15
-37.25365	56.9382	38.235	40.8811	27.3242	147.006	-68.7791	-56.447	-77.7881	96.1306	61.5612	-111.593	-1.11458	-6.12298	7.57797	4.62E-02	5.34E-04	6.63E-01	-1.58119	3.43518	0.622672	-3.20842	6.85438	1.34375	-27.1058	57.223	27.2201	3.18E-15	4.77E-15	3.18E-15	-47.0345	6.16255	-58.8553	-21.587	-22.4504	-145.422	-25.7571	1.93913	11.6885	3.18E-15	4.77E-15	3.18E-15	-2.3517	16.628	57.1349	5.81545	-33.4836	133.179	7.14994	-1.26413	9.48666	-7.54E+00	-4.67E+01	-19.9647	119.471	82.0524	-133.65	-6.86063	-1.61142	-5.06984	1.27E-14	3.18E-14	3.18E-15
-37.25635	56.9496	38.218	40.8817	27.2967	147.038	-68.7898	-56.4615	-77.7921	96.1501	61.5431	-111.62	-1.11835	-6.10943	7.56295	4.62E-02	5.34E-04	6.63E-01	-1.58827	3.43304	0.628208	-3.2229	6.84986	1.35521	-27.2169	57.1932	27.3685	3.18E-15	0.00E+00	0.00E+00	-46.9829	6.07609	-58.7393	-21.7007	-22.3773	-145.484	-25.743	1.95326	11.7276	3.18E-15	0.00E+00	0.00E+00	-2.39611	16.6771	57.1971	5.71478	-33.5061	133.113	7.1066	-1.31672	9.5309	-7.53E+00	-46.7351	-1.99E+01	119.175	82.0063	-133.361	-6.85201	-1.62783	-5.08842	1.35E-14	3.26E-14	1.27E-14
-37.25845	56.971	38.196	40.8791	27.277	147.062	-68.7807	-56.4732	-77.7803	96.145	61.5358	-111.631	-1.12281	-6.09981	7.55792	4.62E-02	5.34E-04	6.63E-01	-1.59671	3.42589	0.634766	-3.2401	6.83526	1.36865	-27.355	57.1801	27.5308	-7.95E-15	0.00E+00	9.54E-15	-46.9441	6.03017	-58.6354	-21.7867	-22.3289	-145.536	-25.742	1.96338	11.7579	-7.95E-15	0.00E+00	9.54E-15	-2.43532	16.7242	57.2726	5.61866	-33.5201	133.038	7.07638	-1.37006	9.57325	-7.52E+00	-4.67E+01	-1.99E+01	118.775	81.9583	-132.963	-6.84418	-1.64112	-5.14591	1.43E-14	3.38E-14	0.00E+00
-37.25455	57.001	38.174	40.8726	27.265	147.077	-68.745	-56.4842	-77.7482	96.1194	61.5379	-111.624	-1.12561	-6.10088	7.56346	4.62E-02	5.34E-04	6.63E-01	-1.6036	3.42289	0.640279	-3.25421	6.82903	1.38003	-27.5175	57.1444	27.6981	0.00E+00	0.00E+00	-3.18E-15	-46.9348	5.98155	-58.54	-21.845	-22.2938	-145.59	-25.7426	1.9692	11.778	0.00E+00	0.00E+00	-3.18E-15	-2.50436	16.7514	57.3725	5.5516	-33.538	132.963	7.05643	-1.4015	9.61606	-7.49041	-4.67E+01	-19.7689	118.426	81.9131	-132.613	-6.84886	-1.69306	-5.14713	1.59E-14	3.26E-14	9.54E-15
-37.24925	57.0393	38.152	40.8879	27.2696	147.1	-68.6738	-56.4614	-77.6791	96.0813	61.5298	-111.603	-1.12808	-6.11237	7.55233	4.62E-02	5.34E-04	6.63E-01	-1.60112	3.42014	0.647143	-3.25005	6.82105	1.39352	-27.7037	57.1253	27.8516	-1.59E-15	1.59E-15	3.18E-15	-47.004	5.97491	-58.4406	-21.8608	-22.2556	-145.64	-25.7218	1.97304	11.7934	-1.59E-15	1.59E-15	3.18E-15	-2.60124	16.8075	57.4548	5.51048	-33.5584	132.906	7.05991	-1.42373	9.65263	-7.46097	-4.66E+01	-19.6952	118.023	81.8644	-132.221	-6.85189	-1.72521	-5.14685	1.43E-14	3.18E-14	1.59E-14
-37.24115	57.0882	38.127	40.8964	27.2698	147.125	-68.6089	-56.4376	-77.6052	96.0437	61.5062	-111.573	-1.12861	-6.12476	7.53896	4.62E-02	5.34E-04	6.63E-01	-1.59784	3.41743	0.654029	-3.24341	6.81908	1.4071	-27.8745	57.0866	27.9784	3.18E-15	0.00E+00	-6.36E-15	-47.0982	5.96883	-58.3644	-21.8622	-22.2101	-145.692	-25.6906	2.00004	11.8135	3.18E-15	0.00E+00	-6.36E-15	-2.67852	16.8419	57.5225	5.45191	-33.5809	132.852	7.08802	-1.47503	9.68639	-7.42E+00	-4.66E+01	-1.96E+01	117.617	81.829	-131.83	-6.85734	-1.74459	-5.20104	1.59E-14	3.14E-14	9.54E-15
-37.22855	57.1436	38.103	40.9016	27.2706	147.146	-68.5516	-56.4122	-77.5391	96.0113	61.4754	-111.538	-1.10868	-6.11715	7.55306	4.62E-02	5.34E-04	6.63E-01	-1.59568	3.41428	0.657536	-3.24561	6.81138	1.41405	-28.0254	57.0754	28.0996	-4.77E-15	7.95E-15	-3.18E-15	-47.1592	5.99186	-58.301	-21.8564	-22.1888	-145.738	-25.6716	2.03511	11.8452	-4.77E-15	7.95E-15	-3.18E-15	-2.71669	16.8807	57.5863	5.36464	-33.6226	132.794	7.13032	-1.55698	9.70296	-7.39E+00	-4.65E+01	-1.96E+01	117.197	81.7984	-131.428	-6.86829	-1.76888	-5.23914	1.67E-14	3.38E-14	9.54E-15
-37.21185	57.2014	38.082	40.9119	27.2812	147.171	-68.4816	-56.3709	-77.4708	95.988	61.4544	-111.512	-1.08649	-6.11757	7.57009	4.62E-02	5.34E-04	6.63E-01	-1.59388	3.41008	0.659419	-3.24923	6.80287	1.41963	-28.1217	57.0987	28.1798	1.59E-15	4.77E-15	-6.36E-15	-47.1765	6.04801	-58.2565	-21.8381	-22.2141	-145.772	-25.6704	2.04683	11.8482	1.59E-15	4.77E-15	-6.36E-15	-2.71286	16.9177	57.6249	5.24363	-33.6839	132.717	7.16242	-1.65754	9.71227	-7.36154	-46.4183	-19.5176	116.806	81.7679	-131.062	-6.88353	-1.79396	-5.24051	1.51E-14	3.26E-14	6.36E-15
-37.18915	57.2596	38.065	40.922	27.2918	147.208	-68.4136	-56.3155	-77.4226	95.9722	61.4475	-111.498	-1.06478	-6.1293	7.58578	4.62E-02	5.34E-04	6.63E-01	-1.59242	3.40381	0.660461	-3.24845	6.79032	1.41963	-28.169	57.1498	28.2093	1.59E-15	-6.36E-15	-3.18E-15	-47.1973	6.1223	-58.2148	-21.8173	-22.2359	-145.787	-25.661	2.02961	11.8183	1.59E-15	-6.36E-15	-3.18E-15	-2.7103	16.9516	57.6441	5.09146	-33.7779	132.626	7.19205	-1.77307	9.71362	-7.36E+00	-4.63E+01	-19.5276	116.525	81.7533	-130.813	-6.90809	-1.82352	-5.2004	1.35E-14	3.38E-14	1.27E-14
-37.16165	57.315	38.051	40.944	27.315	147.249	-68.3279	-56.2436	-77.3624	95.9578	61.453	-111.495	-1.05154	-6.15432	7.58679	4.62E-02	5.34E-04	6.63E-01	-1.59133	3.39843	0.661337	-3.23771	6.77966	1.41883	-28.189	57.2321	28.2081	-2.65E-31	4.77E-15	3.18E-15	-47.2389	6.20407	-58.1551	-21.8104	-22.2187	-145.787	-25.6399	1.99582	11.7669	-2.65E-31	4.77E-15	3.18E-15	-2.72358	16.9668	57.6324	4.83456	-33.9431	132.47	7.22588	-1.99329	9.71864	-7.36E+00	-4.63E+01	-1.96E+01	116.324	81.7417	-130.638	-6.92174	-1.83618	-5.17854	1.51E-14	3.30E-14	0.00E+00
-37.12735	57.367	38.043	40.9647	27.3584	147.275	-68.2278	-56.1818	-77.2773	95.9437	61.4687	-111.491	-1.04125	-6.17051	7.57485	4.62E-02	5.34E-04	6.63E-01	-1.59062	3.39621	0.662722	-3.22884	6.77386	1.4212	-28.1822	57.3326	28.1838	1.59E-15	-1.59E-15	0.00E+00	-47.3044	6.27431	-58.0822	-21.8111	-22.1469	-145.769	-25.5991	1.96064	11.7142	1.59E-15	-1.59E-15	0.00E+00	-2.72957	16.9491	57.5809	4.27934	-34.2669	132.164	7.28778	-2.50432	9.73477	-7.35E+00	-46.1552	-19.6033	116.23	81.7501	-130.561	-6.94897	-1.86914	-5.18745	1.67E-14	3.22E-14	-3.18E-15
-37.08865	57.4156	38.042	40.9765	27.4033	147.299	-68.152	-56.1288	-77.2033	95.9353	61.4836	-111.493	-1.0264	-6.16894	7.57616	4.62E-02	5.34E-04	0.662642	-1.5906	3.39557	0.665288	-3.22405	6.77332	1.4284	-28.0731	57.432	28.0742	-1.59E-15	1.59E-15	0.00E+00	-47.3408	6.31652	-58.0381	-21.8003	-22.0722	-145.729	-25.5866	1.90707	11.6402	-1.59E-15	1.59E-15	0.00E+00	-2.66683	16.8854	57.4649	3.43488	-34.7249	131.736	7.42994	-3.15704	9.73548	-7.33462	-46.0661	-1.96E+01	116.093	81.7578	-130.42	-6.97803	-1.90045	-5.18636	1.75E-14	3.30E-14	6.36E-15
-37.05425	57.4595	38.041	40.9804	27.4475	147.327	-68.1038	-56.0847	-77.1387	95.9126	61.4961	-111.488	-1.00403	-6.1609	7.58679	4.62E-02	5.34E-04	6.63E-01	-1.59148	3.39658	0.670498	-3.22439	6.77573	1.43902	-27.847	57.5402	27.8612	1.59E-15	-3.18E-15	0.00E+00	-47.2967	6.32901	-58.0271	-21.7826	-22.0296	-145.671	-25.5816	1.85094	11.5334	1.59E-15	-3.18E-15	0.00E+00	-2.52957	16.7757	57.3048	2.55494	-35.1609	131.315	7.56724	-3.6482	9.67593	-7.34E+00	-4.60E+01	-1.97E+01	115.996	81.7792	-130.306	-7.00473	-1.92247	-5.22099	1.43E-14	3.10E-14	9.54E-15
-37.02455	57.4979	38.042	41.0063	27.5012	147.344	-68.0342	-56.0415	-77.0377	95.8906	61.4961	-111.486	-1.00421	-6.18264	7.57454	4.62E-02	5.34E-04	6.63E-01	-1.59291	3.4009	0.677136	-3.22751	6.78414	1.45264	-27.5578	57.6654	27.5923	-4.77E-15	-3.18E-15	0.00E+00	-47.1878	6.31532	-58.0435	-21.7838	-22.0128	-145.567	-25.5894	1.76314	11.365	-4.77E-15	-3.18E-15	0.00E+00	-2.349	16.6146	57.0982	1.78175	-35.5075	130.982	7.64179	-3.92453	9.53472	-7.34E+00	-4.59E+01	-1.97E+01	115.851	81.7689	-130.154	-7.03464	-1.94546	-5.22872	1.59E-14	3.38E-14	0.00E+00
-37.00025	57.5313	38.044	41.0461	27.5609	147.351	-67.9517	-56.0101	-76.9262	95.8616	61.4975	-111.471	-1.00573	-6.19706	7.55823	4.62E-02	5.34E-04	0.662642	-1.59447	3.40605	0.683754	-3.23189	6.79424	1.46609	-27.2978	57.787	27.3373	1.59E-15	3.18E-15	9.54E-15	-47.0403	6.26183	-58.0884	-21.8158	-21.9875	-145.414	-25.6121	1.6636	11.1575	1.59E-15	3.18E-15	9.54E-15	-2.25019	16.4414	56.8816	1.15249	-35.8496	130.731	7.63465	-4.05453	9.3225	-7.33E+00	-4.58E+01	-1.97E+01	115.876	81.7811	-130.173	-7.06101	-1.96344	-5.24936	1.43E-14	3.26E-14	6.36E-15
